<svg xmlns="http://www.w3.org/2000/svg" width="805" height="800">
    <g id="viz">
        <g transform="translate(0,0)">
            <g transform="translate(50,20)">
                <g id="primera" fill="rgb(251, 163, 94)">
                    <rect x="6.934840425531888" y="431.57142857142856" width="54.570589539007095" height="60.57142857142861"/>
                    <rect x="68.4402703900709" y="416.42857142857144" width="54.570589539007095" height="75.71428571428567"/>
                    <rect x="129.94570035460993" y="446.7142857142857" width="54.570589539007095" height="45.428571428571445"/>
                    <rect x="191.45113031914892" y="431.57142857142856" width="54.570589539007095" height="60.57142857142861"/>
                    <rect x="252.95656028368793" y="507.28571428571433" width="54.570589539007095" height="22.714285714285666"/>
                    <rect x="314.4619902482269" y="469.4285714285714" width="54.570589539007095" height="22.714285714285666"/>
                    <rect x="375.96742021276594" y="454.28571428571433" width="54.570589539007095" height="37.85714285714283"/>
                    <rect x="437.47285017730496" y="469.4285714285714" width="54.570589539007095" height="0"/>
                    <rect x="498.978280141844" y="469.4285714285714" width="54.570589539007095" height="22.714285714285666"/>
                    <rect x="560.483710106383" y="507.28571428571433" width="54.570589539007095" height="22.714285714285666"/>
                    <rect x="621.989140070922" y="461.8571428571429" width="54.570589539007095" height="45.428571428571445"/>
                    <rect x="683.494570035461" y="431.57142857142856" width="54.570589539007095" height="60.57142857142861"/>
                </g>
                <g id="segunda" fill="rgb(235, 247, 166)">
                    <rect x="6.934840425531888" y="189.28571428571425" width="54.570589539007095" height="60.571428571428555"/>
                    <rect x="68.4402703900709" y="174.14285714285717" width="54.570589539007095" height="60.571428571428555"/>
                    <rect x="129.94570035460993" y="204.42857142857147" width="54.570589539007095" height="60.571428571428555"/>
                    <rect x="191.45113031914892" y="174.1428571428571" width="54.570589539007095" height="60.571428571428555"/>
                    <rect x="252.95656028368793" y="363.42857142857144" width="54.570589539007095" height="60.57142857142861"/>
                    <rect x="314.4619902482269" y="227.14285714285717" width="54.570589539007095" height="60.571428571428555"/>
                    <rect x="375.96742021276594" y="181.71428571428572" width="54.570589539007095" height="75.71428571428567"/>
                    <rect x="437.47285017730496" y="227.14285714285717" width="54.570589539007095" height="60.571428571428555"/>
                    <rect x="498.978280141844" y="227.14285714285717" width="54.570589539007095" height="60.571428571428555"/>
                    <rect x="560.483710106383" y="265" width="54.570589539007095" height="60.571428571428555"/>
                    <rect x="621.989140070922" y="219.5714285714286" width="54.570589539007095" height="60.571428571428555"/>
                    <rect x="683.494570035461" y="189.28571428571425" width="54.570589539007095" height="60.571428571428555"/>
                </g>
                <g id="tercera" fill="rgb(94, 79, 162)">
                    <rect x="6.934840425531888" y="310.4285714285714" width="54.570589539007095" height="60.57142857142861"/>
                    <rect x="68.4402703900709" y="295.2857142857143" width="54.570589539007095" height="60.571428571428555"/>
                    <rect x="129.94570035460993" y="325.5714285714286" width="54.570589539007095" height="60.57142857142861"/>
                    <rect x="191.45113031914892" y="295.2857142857143" width="54.570589539007095" height="75.71428571428567"/>
                    <rect x="252.95656028368793" y="484.57142857142856" width="54.570589539007095" height="22.714285714285666"/>
                    <rect x="314.4619902482269" y="348.2857142857142" width="54.570589539007095" height="60.57142857142861"/>
                    <rect x="375.96742021276594" y="318.00000000000006" width="54.570589539007095" height="75.71428571428567"/>
                    <rect x="437.47285017730496" y="348.2857142857142" width="54.570589539007095" height="60.57142857142861"/>
                    <rect x="498.978280141844" y="348.2857142857142" width="54.570589539007095" height="60.57142857142861"/>
                    <rect x="560.483710106383" y="386.1428571428571" width="54.570589539007095" height="60.57142857142861"/>
                    <rect x="621.989140070922" y="340.71428571428567" width="54.570589539007095" height="60.57142857142861"/>
                    <rect x="683.494570035461" y="310.4285714285714" width="54.570589539007095" height="60.57142857142861"/>
                </g>
                <g id="cuarta" fill="rgb(225, 82, 74)">
                    <rect x="6.934840425531888" y="128.71428571428572" width="54.570589539007095" height="60.571428571428555"/>
                    <rect x="68.4402703900709" y="98.42857142857149" width="54.570589539007095" height="75.71428571428567"/>
                    <rect x="129.94570035460993" y="204.42857142857147" width="54.570589539007095" height="0"/>
                    <rect x="191.45113031914892" y="98.42857142857143" width="54.570589539007095" height="75.71428571428567"/>
                    <rect x="252.95656028368793" y="302.85714285714283" width="54.570589539007095" height="60.571428571428555"/>
                    <rect x="314.4619902482269" y="151.42857142857142" width="54.570589539007095" height="75.71428571428567"/>
                    <rect x="375.96742021276594" y="106.00000000000003" width="54.570589539007095" height="75.71428571428567"/>
                    <rect x="437.47285017730496" y="75.71428571428574" width="54.570589539007095" height="151.42857142857144"/>
                    <rect x="498.978280141844" y="166.57142857142856" width="54.570589539007095" height="60.571428571428555"/>
                    <rect x="560.483710106383" y="265" width="54.570589539007095" height="0"/>
                    <rect x="621.989140070922" y="159.00000000000003" width="54.570589539007095" height="60.571428571428555"/>
                    <rect x="683.494570035461" y="113.57142857142858" width="54.570589539007095" height="75.71428571428567"/>
                </g>
                <g id="quinta" fill="rgb(254, 232, 154)">
                    <rect x="6.934840425531888" y="249.85714285714286" width="54.570589539007095" height="60.571428571428555"/>
                    <rect x="68.4402703900709" y="234.71428571428575" width="54.570589539007095" height="60.571428571428555"/>
                    <rect x="129.94570035460993" y="265" width="54.570589539007095" height="60.571428571428555"/>
                    <rect x="191.45113031914892" y="234.7142857142857" width="54.570589539007095" height="60.57142857142861"/>
                    <rect x="252.95656028368793" y="424" width="54.570589539007095" height="60.57142857142861"/>
                    <rect x="314.4619902482269" y="287.71428571428567" width="54.570589539007095" height="60.571428571428555"/>
                    <rect x="375.96742021276594" y="257.42857142857144" width="54.570589539007095" height="60.571428571428555"/>
                    <rect x="437.47285017730496" y="287.71428571428567" width="54.570589539007095" height="60.571428571428555"/>
                    <rect x="498.978280141844" y="287.71428571428567" width="54.570589539007095" height="60.571428571428555"/>
                    <rect x="560.483710106383" y="325.5714285714286" width="54.570589539007095" height="60.57142857142861"/>
                    <rect x="621.989140070922" y="280.14285714285717" width="54.570589539007095" height="60.571428571428555"/>
                    <rect x="683.494570035461" y="249.85714285714286" width="54.570589539007095" height="60.571428571428555"/>
                </g>
                <g id="sexta" fill="rgb(75, 160, 177)">
                    <rect x="6.934840425531888" y="371" width="54.570589539007095" height="60.57142857142861"/>
                    <rect x="68.4402703900709" y="355.8571428571429" width="54.570589539007095" height="60.571428571428555"/>
                    <rect x="129.94570035460993" y="386.1428571428571" width="54.570589539007095" height="60.57142857142861"/>
                    <rect x="191.45113031914892" y="371" width="54.570589539007095" height="60.57142857142861"/>
                    <rect x="252.95656028368793" y="507.28571428571433" width="54.570589539007095" height="0"/>
                    <rect x="314.4619902482269" y="408.85714285714283" width="54.570589539007095" height="60.57142857142861"/>
                    <rect x="375.96742021276594" y="393.7142857142857" width="54.570589539007095" height="60.57142857142861"/>
                    <rect x="437.47285017730496" y="408.85714285714283" width="54.570589539007095" height="60.57142857142861"/>
                    <rect x="498.978280141844" y="408.85714285714283" width="54.570589539007095" height="60.57142857142861"/>
                    <rect x="560.483710106383" y="446.7142857142857" width="54.570589539007095" height="60.57142857142861"/>
                    <rect x="621.989140070922" y="401.2857142857143" width="54.570589539007095" height="60.57142857142861"/>
                    <rect x="683.494570035461" y="371" width="54.570589539007095" height="60.57142857142861"/>
                </g>
                <g id="septima" fill="rgb(160, 217, 163)">
                    <rect x="6.934840425531888" y="492.14285714285717" width="54.570589539007095" height="37.85714285714283"/>
                    <rect x="68.4402703900709" y="492.14285714285717" width="54.570589539007095" height="37.85714285714283"/>
                    <rect x="129.94570035460993" y="492.14285714285717" width="54.570589539007095" height="37.85714285714283"/>
                    <rect x="191.45113031914892" y="492.14285714285717" width="54.570589539007095" height="37.85714285714283"/>
                    <rect x="252.95656028368793" y="530" width="54.570589539007095" height="0"/>
                    <rect x="314.4619902482269" y="492.14285714285717" width="54.570589539007095" height="37.85714285714283"/>
                    <rect x="375.96742021276594" y="492.14285714285717" width="54.570589539007095" height="37.85714285714283"/>
                    <rect x="437.47285017730496" y="469.4285714285714" width="54.570589539007095" height="60.57142857142861"/>
                    <rect x="498.978280141844" y="492.14285714285717" width="54.570589539007095" height="37.85714285714283"/>
                    <rect x="560.483710106383" y="530" width="54.570589539007095" height="0"/>
                    <rect x="621.989140070922" y="507.28571428571433" width="54.570589539007095" height="22.714285714285666"/>
                    <rect x="683.494570035461" y="492.14285714285717" width="54.570589539007095" height="37.85714285714283"/>
                </g>
                <g id="base" fill="rgb(158, 1, 66)">
                    <rect x="6.934840425531888" y="52.999999999999986" width="54.570589539007095" height="75.71428571428567"/>
                    <rect x="68.4402703900709" y="22.71428571428575" width="54.570589539007095" height="75.71428571428567"/>
                    <rect x="129.94570035460993" y="128.71428571428572" width="54.570589539007095" height="75.71428571428567"/>
                    <rect x="191.45113031914892" y="22.714285714285694" width="54.570589539007095" height="75.71428571428567"/>
                    <rect x="252.95656028368793" y="227.14285714285717" width="54.570589539007095" height="75.71428571428567"/>
                    <rect x="314.4619902482269" y="75.71428571428574" width="54.570589539007095" height="75.71428571428567"/>
                    <rect x="375.96742021276594" y="30.285714285714295" width="54.570589539007095" height="75.71428571428567"/>
                    <rect x="437.47285017730496" y="0" width="54.570589539007095" height="75.71428571428567"/>
                    <rect x="498.978280141844" y="90.85714285714289" width="54.570589539007095" height="75.71428571428567"/>
                    <rect x="560.483710106383" y="189.28571428571425" width="54.570589539007095" height="75.71428571428567"/>
                    <rect x="621.989140070922" y="83.28571428571435" width="54.570589539007095" height="75.71428571428567"/>
                    <rect x="683.494570035461" y="37.85714285714284" width="54.570589539007095" height="75.71428571428567"/>
                </g>
                <g id="xAxis" transform="translate(0,530)" fill="none" font-size="10" font-family="sans-serif" text-anchor="middle">
                    <path class="domain" stroke="currentColor" d="M0.5,0.5H745.5"/>
                    <g class="tick" opacity="1" transform="translate(34.22013519503544,0)">
                        <line stroke="currentColor" y2="6"/>
                        <text fill="currentColor" y="9" dy="0.71em" transform="translate(-13,110) rotate(-90)">BROWNE PRIETO, SOFÍA</text>
                    </g>
                    <g class="tick" opacity="1" transform="translate(95.72556515957446,0)">
                        <line stroke="currentColor" y2="6"/>
                        <text fill="currentColor" y="9" dy="0.71em" transform="translate(-13,110) rotate(-90)">CAMPAZZO FUENTEALBA, MAGDALENA</text>
                    </g>
                    <g class="tick" opacity="1" transform="translate(157.23099512411346,0)">
                        <line stroke="currentColor" y2="6"/>
                        <text fill="currentColor" y="9" dy="0.71em" transform="translate(-13,110) rotate(-90)">CORDERO BRUMMER, MARÍA JOSÉ</text>
                    </g>
                    <g class="tick" opacity="1" transform="translate(218.73642508865245,0)">
                        <line stroke="currentColor" y2="6"/>
                        <text fill="currentColor" y="9" dy="0.71em" transform="translate(-13,110) rotate(-90)">CORTHORN PEDRASA, MAGDALENA</text>
                    </g>
                    <g class="tick" opacity="1" transform="translate(280.2418550531915,0)">
                        <line stroke="currentColor" y2="6"/>
                        <text fill="currentColor" y="9" dy="0.71em" transform="translate(-13,110) rotate(-90)"  >CUYATE MIMBELA, BRAYAN</text>
                    </g>
                    <g class="tick" opacity="1" transform="translate(341.74728501773046,0)">
                        <line stroke="currentColor" y2="6"/>
                        <text fill="currentColor" y="9" dy="0.71em" transform="translate(-13,110) rotate(-90)">CVITANIC VERGARA, TOMISLAV</text>
                    </g>
                    <g class="tick" opacity="1" transform="translate(403.2527149822695,0)">
                        <line stroke="currentColor" y2="6"/>
                        <text fill="currentColor" y="9" dy="0.71em" transform="translate(-13,110) rotate(-90)">FLORES HIDALGO, VALENTINA</text>
                    </g>
                    <g class="tick" opacity="1" transform="translate(464.7581449468085,0)">
                        <line stroke="currentColor" y2="6"/>
                        <text fill="currentColor" y="9" dy="0.71em" transform="translate(-13,110) rotate(-90)">LAGOS NOVA, CONSTANZA</text>
                    </g>
                    <g class="tick" opacity="1" transform="translate(526.2635749113475,0)">
                        <line stroke="currentColor" y2="6"/>
                        <text fill="currentColor" y="9" dy="0.71em" transform="translate(-13,110) rotate(-90)">NAVARRETE SANTIBÁÑEZ, SOFÍA</text>
                    </g>
                    <g class="tick" opacity="1" transform="translate(587.7690048758866,0)">
                        <line stroke="currentColor" y2="6"/>
                        <text fill="currentColor" y="9" dy="0.71em" transform="translate(-13,110) rotate(-90)">OLIVARES CANALES, DANIELA</text>
                    </g>
                    <g class="tick" opacity="1" transform="translate(649.2744348404256,0)">
                        <line stroke="currentColor" y2="6"/>
                        <text fill="currentColor" y="9" dy="0.71em" transform="translate(-13,110) rotate(-90)">OLIVOS LEIVA, MÓNICA</text>
                    </g>
                    <g class="tick" opacity="1" transform="translate(710.7798648049646,0)">
                        <line stroke="currentColor" y2="6"/>
                        <text fill="currentColor" y="9" dy="0.71em" transform="translate(-13,110) rotate(-90)">WURTH GONZÁLEZ, FRANCISCA</text>
                    </g>
                </g>
                <g id="yAxis" fill="none" font-size="10" font-family="sans-serif" text-anchor="end">
                    <path class="domain" stroke="currentColor" d="M0.5,530.5V0.5"/>
                    <g class="tick" opacity="1" transform="translate(0,530.5)">
                        <line stroke="currentColor" x2="-6"/>
                        <text fill="currentColor" x="-9" dy="0.32em">0.0</text>
                    </g>
                    <g class="tick" opacity="1" transform="translate(0,492.64285714285717)">
                        <line stroke="currentColor" x2="-6"/>
                        <text fill="currentColor" x="-9" dy="0.32em">0.5</text>
                    </g>
                    <g class="tick" opacity="1" transform="translate(0,454.78571428571433)">
                        <line stroke="currentColor" x2="-6"/>
                        <text fill="currentColor" x="-9" dy="0.32em">1.0</text>
                    </g>
                    <g class="tick" opacity="1" transform="translate(0,416.92857142857144)">
                        <line stroke="currentColor" x2="-6"/>
                        <text fill="currentColor" x="-9" dy="0.32em">1.5</text>
                    </g>
                    <g class="tick" opacity="1" transform="translate(0,379.07142857142856)">
                        <line stroke="currentColor" x2="-6"/>
                        <text fill="currentColor" x="-9" dy="0.32em">2.0</text>
                    </g>
                    <g class="tick" opacity="1" transform="translate(0,341.21428571428567)">
                        <line stroke="currentColor" x2="-6"/>
                        <text fill="currentColor" x="-9" dy="0.32em">2.5</text>
                    </g>
                    <g class="tick" opacity="1" transform="translate(0,303.35714285714283)">
                        <line stroke="currentColor" x2="-6"/>
                        <text fill="currentColor" x="-9" dy="0.32em">3.0</text>
                    </g>
                    <g class="tick" opacity="1" transform="translate(0,265.5)">
                        <line stroke="currentColor" x2="-6"/>
                        <text fill="currentColor" x="-9" dy="0.32em">3.5</text>
                    </g>
                    <g class="tick" opacity="1" transform="translate(0,227.64285714285717)">
                        <line stroke="currentColor" x2="-6"/>
                        <text fill="currentColor" x="-9" dy="0.32em">4.0</text>
                    </g>
                    <g class="tick" opacity="1" transform="translate(0,189.78571428571425)">
                        <line stroke="currentColor" x2="-6"/>
                        <text fill="currentColor" x="-9" dy="0.32em">4.5</text>
                    </g>
                    <g class="tick" opacity="1" transform="translate(0,151.92857142857142)">
                        <line stroke="currentColor" x2="-6"/>
                        <text fill="currentColor" x="-9" dy="0.32em">5.0</text>
                    </g>
                    <g class="tick" opacity="1" transform="translate(0,114.07142857142858)">
                        <line stroke="currentColor" x2="-6"/>
                        <text fill="currentColor" x="-9" dy="0.32em">5.5</text>
                    </g>
                    <g class="tick" opacity="1" transform="translate(0,76.21428571428574)">
                        <line stroke="currentColor" x2="-6"/>
                        <text fill="currentColor" x="-9" dy="0.32em">6.0</text>
                    </g>
                    <g class="tick" opacity="1" transform="translate(0,38.35714285714284)">
                        <line stroke="currentColor" x2="-6"/>
                        <text fill="currentColor" x="-9" dy="0.32em">6.5</text>
                    </g>
                    <g class="tick" opacity="1" transform="translate(0,0.5)">
                        <line stroke="currentColor" x2="-6"/>
                        <text fill="currentColor" x="-9" dy="0.32em">7.0</text>
                    </g>
                </g>
            </g>
            <text x="4" y="4" style="font-family: Arial, sans-serif; font-size: 12px; fill: black; font-weight: bold; dominant-baseline: hanging;"/>
        </g>
        <g id="grid">
            <rect x="0" y="0" width="805" height="800" fill="none" stroke="#ccc"/>
        </g>
    </g>
</svg>
